# xmcd
#
# Track frame offsets: 
#        150
#        15625
#        53393
#
# Disc length: 940 seconds
#
# Revision: 0
# Processed by: cddbd v1.5.2PL0 Copyright (c) Steve Scherf et al.
# Submitted via: ExactAudioCopy v0.99pb5
#
DISCID=1503aa03
DTITLE=Clubroot - II: MMX - Limited Edition Bonus EP
DYEAR=2010
DGENRE=Dubstep
TTITLE0=Chamber
TTITLE1=Solar Flares
TTITLE2=Remember Me
EXTD=
EXTT0=
EXTT1=
EXTT2=
PLAYORDER=
